# File created by Blade
# Date/Time:  Thu Jan 22 16:25:48 2015
# Frame Rate: 120.000 fps
#------------------------------------------------------
:FULLY-SPECIFIED
:DEGREES
426
root -1.099604 39.474294 7.502778 54.553824 15.317747 41.522762
RightUpLeg -36.606914 -19.209108 -30.652252
RightLeg -0.479984 -0.000000 0.000000
RightFoot -8.051860 -28.973072 10.285510
RightToeBase 8.156382 -0.000000 -0.000000
LeftUpLeg 10.590015 -27.516206 9.608769
LeftLeg 131.163702 -0.000000 -0.000000
LeftFoot 16.539521 16.180034 -29.396798
LeftToeBase 4.525048 -0.000000 -0.000000
Spine 14.942841 0.706539 -16.729949
RightShoulder -5.788727 -2.706233 -43.741606
RightArm 20.862130 42.229916 20.664985
RightForeArm 8.595478 0.000000 19.930895
RightHand 8.039578 0.000000 -16.934949
RightHandThumb1 -24.326973 -0.000000 -32.862282
LeftShoulder -34.454910 35.501388 -14.406875
LeftArm 28.516104 -19.687966 -73.475952
LeftForeArm 51.733051 -0.000000 12.320771
LeftHand -13.629816 -0.000000 -17.918050
LeftHandThumb1 -26.253704 0.000000 33.147579
Head -10.393882 -20.333868 -13.731602
427
root -1.078731 39.485413 7.493076 54.774908 15.288800 41.726823
RightUpLeg -36.603353 -19.281829 -30.931037
RightLeg -0.521252 -0.000000 0.000000
RightFoot -7.972518 -29.160933 10.172720
RightToeBase 8.029304 -0.000000 -0.000000
LeftUpLeg 10.558577 -27.459114 9.588225
LeftLeg 131.242144 -0.000000 -0.000000
LeftFoot 16.611299 16.198149 -29.331649
LeftToeBase 4.537528 -0.000000 -0.000000
Spine 14.978279 0.592820 -16.690691
RightShoulder -5.953139 -2.573712 -43.922584
RightArm 20.965108 42.426292 20.649849
RightForeArm 8.479151 -0.000000 19.727659
RightHand 7.814276 -0.000000 -17.052422
RightHandThumb1 -24.326973 -0.000000 -32.862282
LeftShoulder -34.512169 35.501303 -14.460335
LeftArm 28.519232 -19.776082 -73.649526
LeftForeArm 51.791693 -0.000000 12.324008
LeftHand -13.633796 -0.000000 -17.846243
LeftHandThumb1 -26.253704 0.000000 33.147579
Head -10.602885 -20.472226 -13.754107
428
root -1.057715 39.496779 7.484741 54.955204 15.272289 41.927623
RightUpLeg -36.560348 -19.349273 -31.201511
RightLeg -0.559828 -0.000000 0.000000
RightFoot -7.900302 -29.327847 10.053835
RightToeBase 8.006792 -0.000000 -0.000000
LeftUpLeg 10.601415 -27.457745 9.544992
LeftLeg 131.322562 -0.000000 -0.000000
LeftFoot 16.680651 16.073065 -29.305517
LeftToeBase 4.533598 -0.000000 -0.000000
Spine 15.071390 0.450565 -16.632847
RightShoulder -6.102739 -2.406341 -44.119329
RightArm 20.985146 42.510024 20.553382
RightForeArm 8.569648 -0.000000 19.565820
RightHand 7.626533 0.000000 -17.292947
RightHandThumb1 -24.326973 -0.000000 -32.862282
LeftShoulder -34.497134 35.402010 -14.463585
LeftArm 28.373518 -19.829822 -73.744623
LeftForeArm 51.813195 -0.000000 12.340443
LeftHand -13.663360 0.000000 -17.815237
LeftHandThumb1 -26.253704 0.000000 33.147579
Head -10.837983 -20.547092 -13.787691
429
root -1.037538 39.510266 7.476452 55.166731 15.253510 42.159099
RightUpLeg -36.547263 -19.455139 -31.479133
RightLeg -0.557288 -0.000000 0.000000
RightFoot -7.856755 -29.491133 9.955893
RightToeBase 7.836077 -0.000000 -0.000000
LeftUpLeg 10.603569 -27.452130 9.500891
LeftLeg 131.403761 -0.000000 -0.000000
LeftFoot 16.697283 16.055974 -29.317154
LeftToeBase 4.588090 -0.000000 -0.000000
Spine 15.138214 0.284953 -16.613832
RightShoulder -6.235416 -2.244700 -44.278006
RightArm 20.992268 42.660783 20.457370
RightForeArm 8.562902 -0.000000 19.424351
RightHand 7.620703 -0.000000 -17.283736
RightHandThumb1 -24.326973 -0.000000 -32.862282
LeftShoulder -34.529293 35.367966 -14.486544
LeftArm 28.331649 -19.945732 -73.912263
LeftForeArm 51.875148 -0.000000 12.340496
LeftHand -13.669543 -0.000000 -17.955549
LeftHandThumb1 -26.253704 0.000000 33.147579
Head -11.040897 -20.648921 -13.787781
430
root -1.016661 39.521891 7.467762 55.362733 15.250466 42.367694
RightUpLeg -36.530652 -19.547175 -31.725904
RightLeg -0.559523 -0.000000 0.000000
RightFoot -7.839333 -29.661715 9.885159
RightToeBase 7.762534 -0.000000 -0.000000
LeftUpLeg 10.622382 -27.439578 9.498385
LeftLeg 131.478285 -0.000000 -0.000000
LeftFoot 16.737692 16.068797 -29.359164
LeftToeBase 4.545049 -0.000000 -0.000000
Spine 15.200347 0.128321 -16.551301
RightShoulder -6.339496 -2.059277 -44.462094
RightArm 20.966484 42.848355 20.366091
RightForeArm 8.437957 -0.000000 19.290355
RightHand 7.986003 -0.000000 -17.108956
RightHandThumb1 -24.326973 -0.000000 -32.862282
LeftShoulder -34.464211 35.287105 -14.425913
LeftArm 28.135182 -19.974705 -74.001100
LeftForeArm 51.790633 0.000000 12.350427
LeftHand -13.705375 -0.000000 -17.938345
LeftHandThumb1 -26.253704 0.000000 33.147579
Head -11.194068 -20.750466 -13.836413
431
root -0.996349 39.533222 7.459248 55.558947 15.252576 42.589572
RightUpLeg -36.511075 -19.652684 -31.973823
RightLeg -0.543153 -0.000000 0.000000
RightFoot -7.736447 -29.858926 9.680818
RightToeBase 7.654433 -0.000000 -0.000000
LeftUpLeg 10.657980 -27.457553 9.483628
LeftLeg 131.553786 -0.000000 -0.000000
LeftFoot 16.762171 16.039837 -29.402223
LeftToeBase 4.551562 -0.000000 -0.000000
Spine 15.270804 -0.048755 -16.503818
RightShoulder -6.463680 -1.989732 -44.666100
RightArm 21.028792 43.130546 20.421977
RightForeArm 8.282039 -0.000000 19.182560
RightHand 7.888848 -0.000000 -17.217453
RightHandThumb1 -24.326973 -0.000000 -32.862282
LeftShoulder -34.541324 35.289291 -14.470931
LeftArm 28.148104 -19.948297 -74.108960
LeftForeArm 51.772332 -0.000000 12.260975
LeftHand -13.719521 0.000000 -17.926092
LeftHandThumb1 -26.253704 0.000000 33.147579
Head -11.357548 -20.798855 -13.849884
432
root -0.976472 39.546783 7.449908 55.768568 15.271235 42.823668
RightUpLeg -36.484601 -19.770372 -32.232090
RightLeg -0.519006 -0.000000 0.000000
RightFoot -7.734699 -30.023206 9.637770
RightToeBase 7.688887 -0.000000 -0.000000
LeftUpLeg 10.675364 -27.487983 9.487474
LeftLeg 131.635359 -0.000000 -0.000000
LeftFoot 16.814373 16.030294 -29.394893
LeftToeBase 4.479983 -0.000000 -0.000000
Spine 15.332948 -0.221733 -16.438046
RightShoulder -6.598937 -1.802244 -44.851743
RightArm 20.966728 43.193603 20.306665
RightForeArm 8.233437 -0.000000 19.041528
RightHand 7.707710 -0.000000 -17.253398
RightHandThumb1 -24.326973 -0.000000 -32.862282
LeftShoulder -34.445021 35.214961 -14.357859
LeftArm 27.954368 -20.029057 -74.260146
LeftForeArm 51.746140 -0.000000 12.263177
LeftHand -13.738408 -0.000000 -18.007446
LeftHandThumb1 -26.253704 0.000000 33.147579
Head -11.484761 -20.896081 -13.874850
